<?xml version="1.0" encoding="UTF-8"?> <svg xmlns="http://www.w3.org/2000/svg" width="177" height="27" viewBox="0 0 177 27" fill="none"><path d="M0 25.9521C0 26.4771 0.2625 26.7396 0.76875 26.7396H16.9125C17.4375 26.7396 17.7 26.4771 17.7 25.9521V21.1521C17.7 20.6271 17.4375 20.3646 16.9125 20.3646H6.9375V0.808317C6.9375 0.264567 6.675 0.00206663 6.15 0.00206663H0.76875C0.31875 0.00206663 0 0.302066 0 0.808317V25.9521Z" fill="white"></path><path d="M21.8742 25.9521C21.8742 26.4771 22.1367 26.7396 22.6617 26.7396H28.043C28.568 26.7396 28.8305 26.4771 28.8305 25.9521V0.808317C28.8305 0.264567 28.568 0.00206663 28.043 0.00206663H22.6617C22.1367 0.00206663 21.8742 0.264567 21.8742 0.808317V25.9521Z" fill="white"></path><path d="M34.7812 25.9521C34.7812 26.4771 35.0438 26.7396 35.5688 26.7396H40.95C41.475 26.7396 41.7375 26.4771 41.7375 25.9521V17.7208H49.7813C50.3063 17.7208 50.5688 17.4583 50.5688 16.9333V12.5646C50.5688 12.0208 50.3063 11.7583 49.7813 11.7583H41.7375V6.20832H52.7062C53.2313 6.20832 53.4938 5.94582 53.4938 5.42082V0.808317C53.4938 0.264567 53.2313 0.00206663 52.7062 0.00206663H35.5688C35.0438 0.00206663 34.7812 0.264567 34.7812 0.808317V25.9521Z" fill="white"></path><path d="M57.9586 25.9521C57.9586 26.4771 58.2211 26.7396 58.7461 26.7396H76.9898C77.5336 26.7396 77.7961 26.4771 77.7961 25.9521V21.3583C77.7961 20.8333 77.5336 20.5708 76.9898 20.5708H64.9148V15.9771H73.8211C74.4023 15.9771 74.7023 15.7146 74.7023 15.1896V11.4771C74.7023 10.9333 74.4023 10.6521 73.8211 10.6521H64.9148V6.20832H76.6523C77.1773 6.20832 77.4398 5.94582 77.4398 5.42082V0.808317C77.4398 0.264567 77.1773 0.00206663 76.6523 0.00206663H58.7461C58.2211 0.00206663 57.9586 0.264567 57.9586 0.808317V25.9521Z" fill="white"></path><path d="M98.2828 15.7146V25.9521C98.2828 26.4771 98.5453 26.7396 99.0703 26.7396H104.358C104.939 26.7396 105.22 26.4771 105.22 25.9521V0.770818C105.22 0.189568 104.864 0.00206663 104.47 0.00206663H99.0703C98.5641 0.00206663 98.2828 0.358318 98.2828 0.808317V9.35832H89.2453V0.770818C89.2453 0.189568 88.8891 0.00206663 88.4953 0.00206663H83.0953C82.5891 0.00206663 82.3078 0.358318 82.3078 0.808317V25.9521C82.3078 26.4771 82.5703 26.7396 83.0953 26.7396H88.3828C88.9641 26.7396 89.2453 26.4771 89.2453 25.9521V15.7146H98.2828Z" fill="white"></path><path d="M111.08 25.9521C111.08 26.4771 111.342 26.7396 111.867 26.7396H130.111C130.655 26.7396 130.917 26.4771 130.917 25.9521V21.3583C130.917 20.8333 130.655 20.5708 130.111 20.5708H118.036V15.9771H126.942C127.523 15.9771 127.823 15.7146 127.823 15.1896V11.4771C127.823 10.9333 127.523 10.6521 126.942 10.6521H118.036V6.20832H129.773C130.298 6.20832 130.561 5.94582 130.561 5.42082V0.808317C130.561 0.264567 130.298 0.00206663 129.773 0.00206663H111.867C111.342 0.00206663 111.08 0.264567 111.08 0.808317V25.9521Z" fill="white"></path><path d="M134.754 25.9521C134.754 26.4771 135.016 26.7396 135.523 26.7396H151.666C152.191 26.7396 152.454 26.4771 152.454 25.9521V21.1521C152.454 20.6271 152.191 20.3646 151.666 20.3646H141.691V0.808317C141.691 0.264567 141.429 0.00206663 140.904 0.00206663H135.523C135.073 0.00206663 134.754 0.302066 134.754 0.808317V25.9521Z" fill="white"></path><path d="M156.234 25.9521C156.234 26.4771 156.497 26.7396 157.003 26.7396H162.347C162.891 26.7396 163.172 26.4771 163.172 25.9521V17.4021H168.684C173.391 17.4958 176.953 13.0708 176.878 8.75832C176.953 4.38957 173.297 -0.110434 168.553 0.00206663H157.003C156.553 0.00206663 156.234 0.302066 156.234 0.808317V25.9521ZM163.172 5.72082H167.053C168.722 5.72082 169.809 7.25832 169.809 8.72082C169.809 10.2771 168.759 11.7208 167.053 11.7208H163.172V5.72082Z" fill="white"></path></svg> 